<svg width="525" height="507" viewBox="0 0 525 507" fill="none" xmlns="http://www.w3.org/2000/svg">
<path fill-rule="evenodd" clip-rule="evenodd" d="M263.001 458C375.125 458 466.019 367.106 466.019 254.982C466.019 142.859 375.125 51.9644 263.001 51.9644C150.877 51.9644 59.9832 142.859 59.9832 254.982C59.9832 367.106 150.877 458 263.001 458ZM263.001 394.394C339.996 394.394 402.412 331.977 402.412 254.982C402.412 177.987 339.996 115.571 263.001 115.571C186.006 115.571 123.59 177.987 123.59 254.982C123.59 331.977 186.006 394.394 263.001 394.394Z" fill="#87CA9A"/>
<path opacity="0.8" d="M221.374 244.101V217.725H233.182C234.843 217.725 236.185 217.93 237.207 218.339C238.23 218.747 239.009 219.335 239.546 220.102C240.108 220.843 240.479 221.738 240.658 222.786C240.862 223.833 240.964 224.996 240.964 226.274C240.964 227.476 240.875 228.6 240.696 229.648C240.517 230.67 240.146 231.578 239.584 232.37C239.047 233.137 238.255 233.737 237.207 234.172C236.159 234.606 234.779 234.823 233.067 234.823H225.706V244.101H221.374ZM225.706 231.143H231.418C232.62 231.143 233.578 231.066 234.294 230.913C235.009 230.76 235.52 230.491 235.827 230.108C236.159 229.725 236.377 229.226 236.479 228.613C236.581 227.999 236.632 227.22 236.632 226.274C236.632 225.329 236.581 224.549 236.479 223.936C236.402 223.297 236.198 222.798 235.866 222.441C235.559 222.057 235.06 221.789 234.37 221.635C233.68 221.482 232.735 221.405 231.533 221.405H225.706V231.143ZM245.81 244.101V215.617H249.874V244.101H245.81ZM260.902 244.408C259.573 244.408 258.448 244.229 257.528 243.871C256.634 243.513 255.957 242.925 255.496 242.107C255.036 241.264 254.806 240.127 254.806 238.695C254.806 237.188 254.985 235.999 255.343 235.13C255.701 234.236 256.314 233.597 257.183 233.213C258.052 232.83 259.279 232.638 260.864 232.638C261.119 232.638 261.49 232.651 261.975 232.677C262.487 232.677 263.062 232.689 263.701 232.715C264.365 232.715 265.017 232.728 265.656 232.753C266.32 232.753 266.921 232.766 267.458 232.792V231.871C267.458 230.875 267.394 230.095 267.266 229.533C267.138 228.971 266.87 228.562 266.461 228.306C266.078 228.025 265.515 227.846 264.774 227.769C264.033 227.693 263.074 227.654 261.899 227.654C261.336 227.654 260.672 227.68 259.905 227.731C259.164 227.757 258.436 227.795 257.72 227.846C257.004 227.897 256.455 227.961 256.072 228.038V224.817C257.119 224.613 258.27 224.472 259.522 224.396C260.774 224.294 262.027 224.242 263.279 224.242C264.736 224.242 265.95 224.332 266.921 224.511C267.918 224.69 268.723 224.971 269.336 225.354C269.95 225.738 270.41 226.236 270.716 226.849C271.023 227.463 271.24 228.204 271.368 229.073C271.496 229.916 271.56 230.888 271.56 231.987V244.101H267.803L267.649 241.571H267.419C266.985 242.389 266.397 243.015 265.656 243.449C264.94 243.858 264.161 244.114 263.317 244.216C262.474 244.344 261.669 244.408 260.902 244.408ZM262.704 241.111C263.343 241.111 263.918 241.072 264.429 240.996C264.966 240.893 265.426 240.74 265.809 240.536C266.218 240.306 266.538 239.999 266.768 239.616C266.998 239.181 267.164 238.683 267.266 238.12C267.394 237.558 267.458 236.894 267.458 236.127V235.437H261.86C261.017 235.437 260.365 235.501 259.905 235.629C259.471 235.756 259.177 236.025 259.023 236.434C258.87 236.843 258.793 237.469 258.793 238.312C258.793 239.104 258.883 239.705 259.062 240.114C259.241 240.497 259.611 240.766 260.174 240.919C260.761 241.047 261.605 241.111 262.704 241.111ZM279.209 244.101V227.961H275.298V224.549H279.209V218.875H283.273V224.549H287.835V227.961H283.273V244.101H279.209ZM298.608 244.408C297.842 244.408 297.011 244.382 296.116 244.331C295.247 244.28 294.391 244.216 293.548 244.139C292.704 244.063 291.95 243.973 291.286 243.871V240.651C291.72 240.676 292.206 240.715 292.743 240.766C293.305 240.817 293.893 240.855 294.506 240.881C295.12 240.906 295.72 240.932 296.308 240.957C296.896 240.983 297.471 240.996 298.033 240.996C299.26 240.996 300.142 240.919 300.679 240.766C301.241 240.612 301.599 240.357 301.752 239.999C301.931 239.616 302.02 239.13 302.02 238.542C302.02 237.878 301.956 237.392 301.829 237.085C301.726 236.779 301.522 236.574 301.215 236.472C300.909 236.37 300.436 236.28 299.797 236.204L295.043 235.629C293.816 235.501 292.883 235.22 292.244 234.785C291.631 234.325 291.209 233.712 290.979 232.945C290.775 232.153 290.673 231.194 290.673 230.07C290.673 228.766 290.851 227.731 291.209 226.964C291.593 226.172 292.117 225.584 292.781 225.201C293.471 224.817 294.302 224.562 295.273 224.434C296.244 224.306 297.305 224.242 298.455 224.242C299.171 224.242 299.912 224.268 300.679 224.319C301.471 224.37 302.225 224.447 302.94 224.549C303.682 224.626 304.321 224.715 304.857 224.817V228.038C304.244 227.961 303.579 227.897 302.864 227.846C302.148 227.795 301.432 227.757 300.717 227.731C300.027 227.68 299.362 227.654 298.723 227.654C297.778 227.654 296.998 227.706 296.385 227.808C295.771 227.884 295.311 228.089 295.005 228.421C294.723 228.728 294.583 229.265 294.583 230.031C294.583 230.619 294.621 231.066 294.698 231.373C294.8 231.654 294.992 231.859 295.273 231.987C295.58 232.089 296.04 232.178 296.653 232.255L301.79 232.868C302.761 232.97 303.541 233.175 304.129 233.482C304.742 233.763 305.189 234.287 305.471 235.053C305.777 235.795 305.931 236.932 305.931 238.465C305.931 239.743 305.765 240.778 305.432 241.571C305.126 242.338 304.653 242.938 304.014 243.373C303.375 243.782 302.595 244.05 301.675 244.178C300.781 244.331 299.758 244.408 298.608 244.408ZM190.188 282.101V255.725H194.673L206.749 273.974H206.903V255.725H211.043V282.101H206.903L194.482 263.278H194.328V282.101H190.188ZM225.9 282.408C224.239 282.408 222.859 282.305 221.76 282.101C220.661 281.871 219.779 281.513 219.115 281.028C218.45 280.516 217.952 279.877 217.619 279.111C217.287 278.318 217.07 277.373 216.968 276.274C216.866 275.149 216.814 273.846 216.814 272.363C216.814 270.6 216.904 269.079 217.083 267.801C217.262 266.523 217.632 265.476 218.195 264.658C218.757 263.814 219.626 263.201 220.801 262.817C222.003 262.434 223.6 262.242 225.594 262.242C227.153 262.242 228.431 262.37 229.427 262.626C230.424 262.856 231.204 263.226 231.766 263.738C232.354 264.249 232.775 264.913 233.031 265.731C233.312 266.523 233.491 267.482 233.568 268.606C233.644 269.705 233.683 270.958 233.683 272.363V273.667H220.916C220.916 274.817 220.968 275.75 221.07 276.465C221.172 277.156 221.402 277.692 221.76 278.076C222.143 278.433 222.731 278.689 223.523 278.842C224.341 278.97 225.44 279.034 226.82 279.034C227.408 279.034 228.047 279.021 228.737 278.996C229.453 278.97 230.181 278.919 230.922 278.842C231.664 278.766 232.328 278.702 232.916 278.651V281.833C232.354 281.935 231.676 282.024 230.884 282.101C230.092 282.203 229.261 282.28 228.392 282.331C227.523 282.382 226.693 282.408 225.9 282.408ZM229.772 271.482V270.753C229.772 269.603 229.696 268.696 229.542 268.031C229.414 267.341 229.184 266.83 228.852 266.498C228.546 266.14 228.111 265.91 227.549 265.808C227.012 265.68 226.335 265.616 225.517 265.616C224.495 265.616 223.677 265.693 223.063 265.846C222.475 265.974 222.028 266.229 221.722 266.613C221.415 266.996 221.198 267.533 221.07 268.223C220.968 268.888 220.916 269.769 220.916 270.868H230.462L229.772 271.482ZM240.722 282.101V265.961H236.812V262.549H240.722V256.875H244.786V262.549H249.348V265.961H244.786V282.101H240.722ZM257.208 282.101L251.304 262.549H255.483L259.623 277.424H259.891L264.224 262.549H268.019L272.313 277.424H272.619L276.721 262.549H280.823L274.881 282.101H270.051L266.179 269.22H265.872L262.077 282.101H257.208ZM292.495 282.408C290.86 282.408 289.492 282.305 288.393 282.101C287.32 281.897 286.464 281.577 285.825 281.143C285.211 280.683 284.751 280.069 284.445 279.302C284.163 278.536 283.972 277.577 283.869 276.427C283.793 275.277 283.754 273.897 283.754 272.287C283.754 270.702 283.793 269.335 283.869 268.185C283.972 267.035 284.163 266.076 284.445 265.309C284.751 264.543 285.211 263.942 285.825 263.508C286.464 263.047 287.32 262.728 288.393 262.549C289.492 262.345 290.86 262.242 292.495 262.242C294.157 262.242 295.524 262.345 296.597 262.549C297.696 262.728 298.553 263.047 299.166 263.508C299.805 263.942 300.265 264.543 300.546 265.309C300.853 266.076 301.044 267.035 301.121 268.185C301.223 269.335 301.275 270.702 301.275 272.287C301.275 273.897 301.223 275.277 301.121 276.427C301.044 277.577 300.853 278.536 300.546 279.302C300.265 280.069 299.805 280.683 299.166 281.143C298.553 281.577 297.696 281.897 296.597 282.101C295.524 282.305 294.157 282.408 292.495 282.408ZM292.495 278.996C293.671 278.996 294.578 278.919 295.217 278.766C295.856 278.612 296.303 278.306 296.559 277.846C296.84 277.386 297.006 276.708 297.057 275.814C297.134 274.919 297.172 273.744 297.172 272.287C297.172 270.83 297.134 269.667 297.057 268.798C297.006 267.904 296.84 267.226 296.559 266.766C296.303 266.306 295.856 266.012 295.217 265.884C294.578 265.731 293.671 265.654 292.495 265.654C291.345 265.654 290.451 265.731 289.812 265.884C289.173 266.012 288.713 266.306 288.432 266.766C288.176 267.226 288.01 267.904 287.933 268.798C287.882 269.667 287.857 270.83 287.857 272.287C287.857 273.744 287.882 274.919 287.933 275.814C288.01 276.708 288.176 277.386 288.432 277.846C288.713 278.306 289.173 278.612 289.812 278.766C290.451 278.919 291.345 278.996 292.495 278.996ZM306.573 282.101V262.549H310.291L310.445 266.076H310.751C311.084 265.054 311.544 264.262 312.131 263.699C312.719 263.137 313.435 262.754 314.278 262.549C315.122 262.345 316.08 262.242 317.154 262.242V266.229C315.416 266.229 314.074 266.485 313.128 266.996C312.208 267.507 311.556 268.325 311.173 269.45C310.815 270.549 310.636 271.993 310.636 273.782V282.101H306.573ZM321.136 282.101V253.617H325.2V270.562H327.232L333.481 262.549H337.966L330.49 271.98L338.081 282.101H333.442L327.232 273.974H325.2V282.101H321.136Z" fill="#0F341A"/>
<g filter="url(#filter0_d_330_2920)">
<path d="M258.176 31.9628C261.352 30.1294 265.264 30.1294 268.44 31.9628L309.285 55.5448C312.46 57.3782 314.417 60.7665 314.417 64.4333V111.597C314.417 115.264 312.46 118.652 309.285 120.486L268.44 144.068C265.264 145.901 261.352 145.901 258.176 144.068L217.331 120.486C214.155 118.652 212.199 115.264 212.199 111.597V64.4333C212.199 60.7665 214.155 57.3782 217.331 55.5448L258.176 31.9628Z" fill="#127AD1"/>
</g>
<g filter="url(#filter1_d_330_2920)">
<path d="M152.376 342.653C155.552 340.819 159.464 340.819 162.639 342.653L203.485 366.235C206.66 368.068 208.616 371.456 208.616 375.123V422.287C208.616 425.954 206.66 429.342 203.485 431.176L162.639 454.758C159.464 456.591 155.552 456.591 152.376 454.758L111.531 431.176C108.355 429.342 106.399 425.954 106.399 422.287V375.123C106.399 371.456 108.355 368.068 111.531 366.235L152.376 342.653Z" fill="#127AD1"/>
</g>
<g filter="url(#filter2_d_330_2920)">
<path d="M364.827 342.653C368.003 340.819 371.915 340.819 375.091 342.653L415.936 366.235C419.111 368.068 421.068 371.456 421.068 375.123V422.287C421.068 425.954 419.111 429.342 415.936 431.176L375.091 454.758C371.915 456.591 368.003 456.591 364.827 454.758L323.982 431.176C320.806 429.342 318.85 425.954 318.85 422.287V375.123C318.85 371.456 320.806 368.068 323.982 366.235L364.827 342.653Z" fill="#127AD1"/>
</g>
<path opacity="0.8" d="M247.559 82.2686V71.2787H249.907L254.236 78.0515H254.315V71.2787H256.488V82.2686H254.331L249.811 75.1283H249.731V82.2686H247.559ZM259.102 82.2686V71.2787H266.29V73.1316H261.37V76.1027H265.699V77.9557H261.37V82.2686H259.102ZM270.401 82.2686V73.1955H267.222V71.2787H275.848V73.1955H272.669V82.2686H270.401ZM242.621 103.269V92.2787H244.89V96.7673H249.266V92.2787H251.535V103.269H249.266V98.7161H244.89V103.269H242.621ZM257.424 103.396C256.721 103.396 256.135 103.354 255.667 103.269C255.198 103.183 254.831 103.045 254.565 102.853C254.298 102.662 254.101 102.406 253.974 102.087C253.856 101.767 253.777 101.368 253.734 100.889C253.702 100.409 253.686 99.8396 253.686 99.1793C253.686 98.5191 253.702 97.9547 253.734 97.4861C253.777 97.0069 253.856 96.6076 253.974 96.2881C254.101 95.9686 254.298 95.713 254.565 95.5213C254.831 95.3296 255.198 95.1965 255.667 95.122C256.135 95.0368 256.721 94.9942 257.424 94.9942C258.127 94.9942 258.707 95.0368 259.165 95.122C259.634 95.1965 260.001 95.3296 260.267 95.5213C260.544 95.713 260.741 95.9686 260.858 96.2881C260.986 96.6076 261.066 97.0069 261.098 97.4861C261.14 97.9547 261.162 98.5191 261.162 99.1793C261.162 99.8396 261.14 100.409 261.098 100.889C261.066 101.368 260.986 101.767 260.858 102.087C260.741 102.406 260.544 102.662 260.267 102.853C260.001 103.045 259.634 103.183 259.165 103.269C258.707 103.354 258.127 103.396 257.424 103.396ZM257.424 101.687C257.818 101.687 258.127 101.661 258.35 101.607C258.585 101.554 258.744 101.448 258.83 101.288C258.925 101.117 258.984 100.862 259.005 100.521C259.027 100.18 259.037 99.7331 259.037 99.1793C259.037 98.6256 259.027 98.1836 259.005 97.8535C258.984 97.5127 258.925 97.2625 258.83 97.1027C258.744 96.9324 258.585 96.8259 258.35 96.7833C258.127 96.73 257.818 96.7034 257.424 96.7034C257.019 96.7034 256.705 96.73 256.481 96.7833C256.258 96.8259 256.098 96.9324 256.002 97.1027C255.906 97.2625 255.848 97.5127 255.827 97.8535C255.816 98.1836 255.811 98.6256 255.811 99.1793C255.811 99.7331 255.816 100.18 255.827 100.521C255.848 100.862 255.906 101.117 256.002 101.288C256.098 101.448 256.258 101.554 256.481 101.607C256.705 101.661 257.019 101.687 257.424 101.687ZM263.146 103.269V95.122H265.127L265.191 96.1443H265.302C265.441 95.8887 265.617 95.6757 265.83 95.5054C266.053 95.3243 266.314 95.1965 266.612 95.122C266.921 95.0368 267.267 94.9942 267.651 94.9942C268.3 94.9942 268.79 95.09 269.12 95.2817C269.461 95.4628 269.701 95.7503 269.839 96.1443H269.967C270.105 95.8887 270.286 95.6757 270.51 95.5054C270.744 95.3243 271.016 95.1965 271.325 95.122C271.633 95.0368 271.985 94.9942 272.379 94.9942C273.071 94.9942 273.588 95.1167 273.928 95.3616C274.269 95.5959 274.498 95.9526 274.615 96.4318C274.732 96.9004 274.791 97.4808 274.791 98.173V103.269H272.682V98.9557C272.682 98.4658 272.666 98.0771 272.634 97.7896C272.602 97.5021 272.544 97.2891 272.459 97.1507C272.384 97.0122 272.262 96.927 272.091 96.8951C271.921 96.8525 271.692 96.8312 271.404 96.8312C271.096 96.8312 270.845 96.8738 270.654 96.959C270.473 97.0335 270.334 97.156 270.238 97.3264C270.153 97.4968 270.095 97.7257 270.063 98.0132C270.041 98.2901 270.031 98.6362 270.031 99.0515V103.269H267.906V98.9557C267.906 98.4658 267.89 98.0771 267.858 97.7896C267.837 97.5021 267.784 97.2891 267.699 97.1507C267.613 97.0122 267.486 96.927 267.315 96.8951C267.145 96.8525 266.921 96.8312 266.644 96.8312C266.335 96.8312 266.085 96.8738 265.894 96.959C265.712 97.0335 265.574 97.156 265.478 97.3264C265.393 97.4968 265.334 97.7257 265.302 98.0132C265.271 98.3008 265.255 98.6469 265.255 99.0515V103.269H263.146ZM280.702 103.396C279.978 103.396 279.376 103.348 278.897 103.253C278.418 103.157 278.035 103.008 277.747 102.805C277.47 102.592 277.257 102.326 277.108 102.007C276.97 101.677 276.879 101.283 276.837 100.825C276.805 100.356 276.789 99.8183 276.789 99.2113C276.789 98.4871 276.826 97.8588 276.901 97.3264C276.975 96.7939 277.13 96.3573 277.364 96.0165C277.609 95.6651 277.981 95.4095 278.482 95.2498C278.993 95.0794 279.669 94.9942 280.511 94.9942C281.192 94.9942 281.746 95.0474 282.172 95.1539C282.598 95.2604 282.933 95.4202 283.178 95.6332C283.434 95.8461 283.615 96.123 283.721 96.4638C283.838 96.7939 283.913 97.1879 283.945 97.6458C283.977 98.1038 283.993 98.6256 283.993 99.2113V99.8343H278.897C278.897 100.239 278.913 100.569 278.945 100.825C278.988 101.07 279.078 101.256 279.217 101.384C279.366 101.512 279.595 101.597 279.904 101.639C280.223 101.682 280.654 101.703 281.197 101.703C281.421 101.703 281.671 101.698 281.948 101.687C282.236 101.677 282.529 101.661 282.827 101.639C283.136 101.618 283.418 101.597 283.673 101.575V103.141C283.439 103.194 283.152 103.237 282.811 103.269C282.481 103.311 282.129 103.343 281.757 103.364C281.395 103.386 281.043 103.396 280.702 103.396ZM281.98 98.78V98.5244C281.98 98.1091 281.954 97.779 281.9 97.534C281.858 97.2785 281.778 97.0868 281.661 96.959C281.554 96.8312 281.405 96.7513 281.213 96.7194C281.022 96.6768 280.777 96.6555 280.479 96.6555C280.127 96.6555 279.85 96.6821 279.648 96.7353C279.446 96.7779 279.291 96.8685 279.185 97.0069C279.078 97.1347 279.004 97.3264 278.961 97.582C278.919 97.8269 278.897 98.141 278.897 98.5244H282.268L281.98 98.78Z" fill="white"/>
<g filter="url(#filter3_d_330_2920)">
<path d="M427.924 155.76C431.099 153.926 435.012 153.926 438.187 155.76L479.032 179.342C482.208 181.175 484.164 184.563 484.164 188.23V235.394C484.164 239.061 482.208 242.449 479.032 244.282L438.187 267.864C435.012 269.698 431.099 269.698 427.924 267.864L387.078 244.282C383.903 242.449 381.947 239.061 381.947 235.394V188.23C381.947 184.563 383.903 181.175 387.078 179.342L427.924 155.76Z" fill="#127AD1"/>
</g>
<g filter="url(#filter4_d_330_2920)">
<path d="M86.8835 155.76C90.059 153.926 93.9715 153.926 97.147 155.76L137.992 179.342C141.168 181.175 143.124 184.563 143.124 188.23V235.394C143.124 239.061 141.168 242.449 137.992 244.282L97.147 267.864C93.9715 269.698 90.059 269.698 86.8835 267.864L46.0383 244.282C42.8628 242.449 40.9065 239.061 40.9065 235.394V188.23C40.9065 184.563 42.8628 181.175 46.0383 179.342L86.8835 155.76Z" fill="#127AD1"/>
</g>
<path opacity="0.8" d="M416.001 210.329V201.255H412.822V199.339H421.448V201.255H418.269V210.329H416.001ZM424.915 210.456C424.393 210.456 423.951 210.382 423.589 210.233C423.227 210.073 422.95 209.817 422.759 209.466C422.578 209.104 422.487 208.63 422.487 208.044C422.487 207.416 422.562 206.921 422.711 206.559C422.86 206.186 423.121 205.92 423.493 205.76C423.866 205.59 424.383 205.504 425.043 205.504C425.149 205.504 425.298 205.51 425.49 205.52C425.682 205.52 425.9 205.526 426.145 205.536C426.39 205.536 426.635 205.542 426.88 205.552C427.125 205.552 427.348 205.558 427.551 205.568V205.249C427.551 204.897 427.524 204.621 427.471 204.418C427.418 204.216 427.316 204.067 427.167 203.971C427.018 203.875 426.8 203.817 426.512 203.795C426.225 203.774 425.852 203.763 425.394 203.763C425.16 203.763 424.888 203.769 424.58 203.779C424.271 203.79 423.973 203.806 423.685 203.827C423.398 203.849 423.169 203.87 422.998 203.891V202.294C423.456 202.219 423.951 202.161 424.484 202.118C425.016 202.075 425.554 202.054 426.097 202.054C426.736 202.054 427.269 202.097 427.694 202.182C428.131 202.256 428.477 202.379 428.733 202.549C428.999 202.72 429.196 202.938 429.324 203.204C429.462 203.46 429.553 203.769 429.595 204.131C429.638 204.482 429.659 204.887 429.659 205.345V210.329H427.694L427.631 209.338H427.503C427.322 209.668 427.082 209.913 426.784 210.073C426.496 210.233 426.188 210.334 425.857 210.376C425.538 210.43 425.224 210.456 424.915 210.456ZM425.921 208.827C426.156 208.827 426.358 208.811 426.528 208.779C426.709 208.747 426.864 208.694 426.992 208.619C427.13 208.534 427.237 208.428 427.311 208.3C427.386 208.161 427.444 207.991 427.487 207.789C427.529 207.586 427.551 207.341 427.551 207.054V206.814H425.618C425.32 206.814 425.091 206.836 424.931 206.878C424.771 206.921 424.665 207.017 424.612 207.166C424.558 207.315 424.532 207.538 424.532 207.837C424.532 208.114 424.564 208.327 424.628 208.476C424.691 208.614 424.825 208.71 425.027 208.763C425.229 208.806 425.527 208.827 425.921 208.827ZM434.937 210.456C434.607 210.456 434.251 210.446 433.867 210.424C433.494 210.403 433.127 210.376 432.765 210.345C432.403 210.313 432.073 210.275 431.775 210.233V208.635C431.934 208.646 432.121 208.662 432.334 208.683C432.557 208.694 432.797 208.705 433.053 208.715C433.308 208.726 433.558 208.736 433.803 208.747C434.048 208.758 434.277 208.763 434.49 208.763C434.98 208.763 435.331 208.742 435.544 208.699C435.768 208.646 435.912 208.561 435.976 208.444C436.04 208.316 436.072 208.151 436.072 207.948C436.072 207.735 436.05 207.581 436.008 207.485C435.965 207.379 435.885 207.31 435.768 207.278C435.651 207.246 435.459 207.214 435.193 207.182L433.292 206.942C432.792 206.878 432.414 206.745 432.158 206.543C431.913 206.34 431.743 206.069 431.647 205.728C431.562 205.387 431.519 204.983 431.519 204.514C431.519 203.96 431.599 203.524 431.759 203.204C431.929 202.874 432.158 202.629 432.446 202.469C432.744 202.299 433.095 202.187 433.5 202.134C433.915 202.081 434.362 202.054 434.842 202.054C435.161 202.054 435.491 202.065 435.832 202.086C436.173 202.107 436.498 202.139 436.806 202.182C437.126 202.214 437.392 202.256 437.605 202.31V203.891C437.36 203.859 437.089 203.838 436.79 203.827C436.492 203.806 436.199 203.79 435.912 203.779C435.624 203.758 435.369 203.747 435.145 203.747C434.74 203.747 434.416 203.763 434.171 203.795C433.936 203.817 433.771 203.88 433.676 203.987C433.58 204.093 433.532 204.269 433.532 204.514C433.532 204.706 433.548 204.855 433.58 204.961C433.612 205.057 433.681 205.126 433.787 205.169C433.894 205.201 434.064 205.233 434.299 205.265L436.359 205.52C436.732 205.563 437.046 205.648 437.302 205.776C437.557 205.904 437.744 206.127 437.861 206.447C437.988 206.766 438.052 207.251 438.052 207.901C438.052 208.465 437.983 208.918 437.845 209.258C437.706 209.588 437.493 209.844 437.206 210.025C436.929 210.195 436.599 210.307 436.215 210.36C435.843 210.424 435.417 210.456 434.937 210.456ZM439.922 210.329V198.46H442.03V205.393H442.701L445.049 202.182H447.349L444.41 206.096L447.397 210.329H445.017L442.701 207.102H442.03V210.329H439.922ZM416.831 231.329V220.339H421.927C422.608 220.339 423.162 220.424 423.588 220.594C424.024 220.765 424.36 221.009 424.594 221.329C424.828 221.638 424.988 222.016 425.073 222.463C425.169 222.91 425.217 223.416 425.217 223.981C425.217 224.502 425.175 224.987 425.089 225.434C425.015 225.871 424.86 226.254 424.626 226.584C424.392 226.914 424.051 227.17 423.604 227.351C423.167 227.532 422.587 227.623 421.863 227.623H419.099V231.329H416.831ZM419.099 225.77H420.968C421.426 225.77 421.788 225.748 422.054 225.706C422.321 225.653 422.518 225.562 422.645 225.434C422.773 225.306 422.853 225.125 422.885 224.891C422.928 224.657 422.949 224.353 422.949 223.981C422.949 223.608 422.928 223.304 422.885 223.07C422.853 222.836 422.773 222.655 422.645 222.527C422.528 222.389 422.342 222.298 422.086 222.255C421.831 222.202 421.479 222.176 421.032 222.176H419.099V225.77ZM430.448 231.456C429.745 231.456 429.159 231.414 428.691 231.329C428.222 231.243 427.855 231.105 427.589 230.913C427.322 230.722 427.125 230.466 426.998 230.146C426.88 229.827 426.801 229.428 426.758 228.948C426.726 228.469 426.71 227.9 426.71 227.239C426.71 226.579 426.726 226.015 426.758 225.546C426.801 225.067 426.88 224.667 426.998 224.348C427.125 224.029 427.322 223.773 427.589 223.581C427.855 223.39 428.222 223.256 428.691 223.182C429.159 223.097 429.745 223.054 430.448 223.054C431.151 223.054 431.731 223.097 432.189 223.182C432.658 223.256 433.025 223.39 433.291 223.581C433.568 223.773 433.765 224.029 433.882 224.348C434.01 224.667 434.09 225.067 434.122 225.546C434.164 226.015 434.186 226.579 434.186 227.239C434.186 227.9 434.164 228.469 434.122 228.948C434.09 229.428 434.01 229.827 433.882 230.146C433.765 230.466 433.568 230.722 433.291 230.913C433.025 231.105 432.658 231.243 432.189 231.329C431.731 231.414 431.151 231.456 430.448 231.456ZM430.448 229.747C430.842 229.747 431.151 229.721 431.374 229.667C431.609 229.614 431.768 229.508 431.854 229.348C431.949 229.177 432.008 228.922 432.029 228.581C432.051 228.24 432.061 227.793 432.061 227.239C432.061 226.686 432.051 226.244 432.029 225.913C432.008 225.573 431.949 225.322 431.854 225.163C431.768 224.992 431.609 224.886 431.374 224.843C431.151 224.79 430.842 224.763 430.448 224.763C430.043 224.763 429.729 224.79 429.505 224.843C429.282 224.886 429.122 224.992 429.026 225.163C428.93 225.322 428.872 225.573 428.851 225.913C428.84 226.244 428.835 226.686 428.835 227.239C428.835 227.793 428.84 228.24 428.851 228.581C428.872 228.922 428.93 229.177 429.026 229.348C429.122 229.508 429.282 229.614 429.505 229.667C429.729 229.721 430.043 229.747 430.448 229.747ZM439.62 231.456C438.917 231.456 438.332 231.414 437.863 231.329C437.395 231.243 437.027 231.105 436.761 230.913C436.495 230.722 436.298 230.466 436.17 230.146C436.053 229.827 435.973 229.428 435.93 228.948C435.898 228.469 435.882 227.9 435.882 227.239C435.882 226.579 435.898 226.015 435.93 225.546C435.973 225.067 436.053 224.667 436.17 224.348C436.298 224.029 436.495 223.773 436.761 223.581C437.027 223.39 437.395 223.256 437.863 223.182C438.332 223.097 438.917 223.054 439.62 223.054C440.323 223.054 440.904 223.097 441.361 223.182C441.83 223.256 442.197 223.39 442.464 223.581C442.741 223.773 442.938 224.029 443.055 224.348C443.182 224.667 443.262 225.067 443.294 225.546C443.337 226.015 443.358 226.579 443.358 227.239C443.358 227.9 443.337 228.469 443.294 228.948C443.262 229.428 443.182 229.827 443.055 230.146C442.938 230.466 442.741 230.722 442.464 230.913C442.197 231.105 441.83 231.243 441.361 231.329C440.904 231.414 440.323 231.456 439.62 231.456ZM439.62 229.747C440.014 229.747 440.323 229.721 440.547 229.667C440.781 229.614 440.941 229.508 441.026 229.348C441.122 229.177 441.18 228.922 441.202 228.581C441.223 228.24 441.234 227.793 441.234 227.239C441.234 226.686 441.223 226.244 441.202 225.913C441.18 225.573 441.122 225.322 441.026 225.163C440.941 224.992 440.781 224.886 440.547 224.843C440.323 224.79 440.014 224.763 439.62 224.763C439.216 224.763 438.902 224.79 438.678 224.843C438.454 224.886 438.295 224.992 438.199 225.163C438.103 225.322 438.044 225.573 438.023 225.913C438.012 226.244 438.007 226.686 438.007 227.239C438.007 227.793 438.012 228.24 438.023 228.581C438.044 228.922 438.103 229.177 438.199 229.348C438.295 229.508 438.454 229.614 438.678 229.667C438.902 229.721 439.216 229.747 439.62 229.747ZM445.342 231.329V219.46H447.467V231.329H445.342Z" fill="white"/>
<path opacity="0.8" d="M77.5374 204.738V193.748H79.8856L84.2145 200.521H84.2943V193.748H86.4668V204.738H84.3103L79.7897 197.597H79.7099V204.738H77.5374ZM89.081 204.738V193.748H96.2692V195.601H91.3493V198.572H95.6781V200.425H91.3493V204.738H89.081ZM100.38 204.738V195.665H97.201V193.748H105.827V195.665H102.648V204.738H100.38ZM49.6223 225.738V214.748H52.7372L55.4527 222H55.5486L58.2482 214.748H61.3471V225.738H59.1587V218.086H59.0788L56.2355 225.738H54.67L51.8267 218.086H51.7468V225.738H49.6223ZM65.8104 225.866C65.2886 225.866 64.8466 225.791 64.4845 225.642C64.1225 225.482 63.8456 225.227 63.6539 224.875C63.4729 224.513 63.3824 224.039 63.3824 223.453C63.3824 222.825 63.4569 222.33 63.606 221.968C63.7551 221.595 64.016 221.329 64.3887 221.169C64.7614 220.999 65.2779 220.914 65.9382 220.914C66.0446 220.914 66.1937 220.919 66.3854 220.93C66.5771 220.93 66.7954 220.935 67.0403 220.946C67.2853 220.946 67.5302 220.951 67.7751 220.962C68.0201 220.962 68.2437 220.967 68.446 220.978V220.658C68.446 220.307 68.4194 220.03 68.3662 219.827C68.3129 219.625 68.2118 219.476 68.0627 219.38C67.9136 219.284 67.6953 219.226 67.4077 219.204C67.1202 219.183 66.7475 219.173 66.2896 219.173C66.0553 219.173 65.7837 219.178 65.4749 219.188C65.1661 219.199 64.8679 219.215 64.5804 219.236C64.2929 219.258 64.0639 219.279 63.8935 219.3V217.703C64.3514 217.628 64.8466 217.57 65.3791 217.527C65.9115 217.485 66.4493 217.463 66.9924 217.463C67.6314 217.463 68.1638 217.506 68.5898 217.591C69.0264 217.666 69.3725 217.788 69.6281 217.959C69.8943 218.129 70.0913 218.347 70.2191 218.613C70.3576 218.869 70.4481 219.178 70.4907 219.54C70.5333 219.891 70.5546 220.296 70.5546 220.754V225.738H68.5898L68.5259 224.747H68.3981C68.2171 225.077 67.9775 225.322 67.6793 225.482C67.3918 225.642 67.0829 225.743 66.7528 225.786C66.4333 225.839 66.1192 225.866 65.8104 225.866ZM66.8167 224.236C67.051 224.236 67.2533 224.22 67.4237 224.188C67.6048 224.156 67.7592 224.103 67.887 224.029C68.0254 223.943 68.1319 223.837 68.2064 223.709C68.281 223.571 68.3395 223.4 68.3821 223.198C68.4247 222.996 68.446 222.751 68.446 222.463V222.224H66.5132C66.215 222.224 65.9861 222.245 65.8263 222.287C65.6666 222.33 65.5601 222.426 65.5069 222.575C65.4536 222.724 65.427 222.948 65.427 223.246C65.427 223.523 65.4589 223.736 65.5228 223.885C65.5867 224.023 65.7198 224.119 65.9222 224.172C66.1245 224.215 66.4227 224.236 66.8167 224.236ZM72.8457 225.738V217.591H74.8264L74.8903 218.997H75.0181C75.1566 218.592 75.3429 218.278 75.5772 218.054C75.8221 217.831 76.115 217.676 76.4558 217.591C76.7965 217.506 77.1852 217.463 77.6218 217.463V219.476C76.9297 219.476 76.3865 219.572 75.9925 219.764C75.6092 219.955 75.3376 220.269 75.1779 220.706C75.0288 221.143 74.9542 221.734 74.9542 222.479V225.738H72.8457ZM79.1478 225.738V213.869H81.2564V220.802H81.9273L84.2754 217.591H86.5756L83.6365 221.505L86.6236 225.738H84.2435L81.9273 222.511H81.2564V225.738H79.1478ZM90.9012 225.866C90.177 225.866 89.5753 225.818 89.0961 225.722C88.6169 225.626 88.2336 225.477 87.946 225.274C87.6691 225.062 87.4562 224.795 87.3071 224.476C87.1686 224.146 87.0781 223.752 87.0355 223.294C87.0036 222.825 86.9876 222.287 86.9876 221.68C86.9876 220.956 87.0249 220.328 87.0994 219.795C87.174 219.263 87.3284 218.826 87.5627 218.486C87.8076 218.134 88.1803 217.879 88.6808 217.719C89.192 217.549 89.8682 217.463 90.7095 217.463C91.391 217.463 91.9448 217.517 92.3708 217.623C92.7967 217.73 93.1322 217.889 93.3771 218.102C93.6327 218.315 93.8137 218.592 93.9202 218.933C94.0374 219.263 94.1119 219.657 94.1438 220.115C94.1758 220.573 94.1918 221.095 94.1918 221.68V222.303H89.0961C89.0961 222.708 89.1121 223.038 89.1441 223.294C89.1867 223.539 89.2772 223.725 89.4156 223.853C89.5647 223.981 89.7937 224.066 90.1025 224.108C90.422 224.151 90.8533 224.172 91.3964 224.172C91.62 224.172 91.8702 224.167 92.1471 224.156C92.4347 224.146 92.7275 224.13 93.0257 224.108C93.3345 224.087 93.6167 224.066 93.8723 224.045V225.61C93.638 225.663 93.3505 225.706 93.0097 225.738C92.6796 225.78 92.3282 225.812 91.9554 225.834C91.5934 225.855 91.2419 225.866 90.9012 225.866ZM92.1791 221.249V220.994C92.1791 220.578 92.1525 220.248 92.0992 220.003C92.0566 219.748 91.9767 219.556 91.8596 219.428C91.7531 219.3 91.604 219.22 91.4123 219.188C91.2206 219.146 90.9757 219.125 90.6775 219.125C90.3261 219.125 90.0492 219.151 89.8469 219.204C89.6446 219.247 89.4902 219.338 89.3837 219.476C89.2772 219.604 89.2026 219.795 89.16 220.051C89.1174 220.296 89.0961 220.61 89.0961 220.994H92.4666L92.1791 221.249ZM96.1668 228.917V217.591H98.1475L98.2114 218.613H98.3232C98.4936 218.294 98.7066 218.054 98.9622 217.895C99.2178 217.724 99.5 217.612 99.8088 217.559C100.118 217.495 100.426 217.463 100.735 217.463C101.236 217.463 101.662 217.533 102.013 217.671C102.375 217.799 102.668 218.022 102.892 218.342C103.115 218.651 103.275 219.077 103.371 219.62C103.477 220.163 103.531 220.839 103.531 221.648C103.531 222.458 103.477 223.134 103.371 223.677C103.275 224.22 103.121 224.652 102.908 224.971C102.695 225.29 102.413 225.519 102.061 225.658C101.72 225.796 101.3 225.866 100.799 225.866C100.448 225.866 100.118 225.834 99.8088 225.77C99.5106 225.716 99.2444 225.621 99.0101 225.482C98.7758 225.333 98.5735 225.12 98.4031 224.843H98.2753V228.917H96.1668ZM99.8407 224.029C100.192 224.029 100.474 224.007 100.687 223.965C100.9 223.911 101.055 223.81 101.151 223.661C101.257 223.501 101.326 223.267 101.358 222.958C101.39 222.639 101.406 222.208 101.406 221.664C101.406 221.121 101.39 220.69 101.358 220.371C101.326 220.051 101.257 219.817 101.151 219.668C101.055 219.508 100.9 219.407 100.687 219.364C100.474 219.311 100.192 219.284 99.8407 219.284C99.4574 219.284 99.1645 219.338 98.9622 219.444C98.7599 219.54 98.6054 219.694 98.4989 219.907C98.4031 220.099 98.3392 220.344 98.3073 220.642C98.286 220.93 98.2753 221.27 98.2753 221.664C98.2753 222.069 98.286 222.415 98.3073 222.703C98.3392 222.98 98.3978 223.214 98.483 223.406C98.5895 223.629 98.7492 223.789 98.9622 223.885C99.1752 223.981 99.468 224.029 99.8407 224.029ZM105.511 225.738V213.869H107.635V225.738H105.511ZM111.907 225.866C111.385 225.866 110.943 225.791 110.581 225.642C110.219 225.482 109.942 225.227 109.75 224.875C109.569 224.513 109.479 224.039 109.479 223.453C109.479 222.825 109.553 222.33 109.702 221.968C109.851 221.595 110.112 221.329 110.485 221.169C110.858 220.999 111.374 220.914 112.034 220.914C112.141 220.914 112.29 220.919 112.482 220.93C112.673 220.93 112.892 220.935 113.137 220.946C113.381 220.946 113.626 220.951 113.871 220.962C114.116 220.962 114.34 220.967 114.542 220.978V220.658C114.542 220.307 114.516 220.03 114.462 219.827C114.409 219.625 114.308 219.476 114.159 219.38C114.01 219.284 113.791 219.226 113.504 219.204C113.216 219.183 112.844 219.173 112.386 219.173C112.151 219.173 111.88 219.178 111.571 219.188C111.262 219.199 110.964 219.215 110.677 219.236C110.389 219.258 110.16 219.279 109.99 219.3V217.703C110.448 217.628 110.943 217.57 111.475 217.527C112.008 217.485 112.546 217.463 113.089 217.463C113.728 217.463 114.26 217.506 114.686 217.591C115.123 217.666 115.469 217.788 115.724 217.959C115.991 218.129 116.188 218.347 116.315 218.613C116.454 218.869 116.544 219.178 116.587 219.54C116.629 219.891 116.651 220.296 116.651 220.754V225.738H114.686L114.622 224.747H114.494C114.313 225.077 114.074 225.322 113.775 225.482C113.488 225.642 113.179 225.743 112.849 225.786C112.53 225.839 112.215 225.866 111.907 225.866ZM112.913 224.236C113.147 224.236 113.35 224.22 113.52 224.188C113.701 224.156 113.855 224.103 113.983 224.029C114.122 223.943 114.228 223.837 114.303 223.709C114.377 223.571 114.436 223.4 114.478 223.198C114.521 222.996 114.542 222.751 114.542 222.463V222.224H112.609C112.311 222.224 112.082 222.245 111.923 222.287C111.763 222.33 111.656 222.426 111.603 222.575C111.55 222.724 111.523 222.948 111.523 223.246C111.523 223.523 111.555 223.736 111.619 223.885C111.683 224.023 111.816 224.119 112.018 224.172C112.221 224.215 112.519 224.236 112.913 224.236ZM122.089 225.866C121.439 225.866 120.901 225.807 120.475 225.69C120.06 225.573 119.725 225.402 119.469 225.179C119.224 224.955 119.043 224.678 118.926 224.348C118.809 224.007 118.734 223.613 118.702 223.166C118.67 222.708 118.654 222.202 118.654 221.648C118.654 221.116 118.67 220.631 118.702 220.195C118.745 219.748 118.83 219.354 118.958 219.013C119.086 218.672 119.272 218.39 119.517 218.166C119.762 217.932 120.092 217.756 120.507 217.639C120.923 217.522 121.444 217.463 122.073 217.463C122.477 217.463 122.893 217.485 123.319 217.527C123.745 217.57 124.107 217.628 124.405 217.703V219.3C124.181 219.258 123.899 219.226 123.558 219.204C123.218 219.183 122.903 219.173 122.616 219.173C122.201 219.173 121.87 219.204 121.625 219.268C121.391 219.332 121.21 219.455 121.082 219.636C120.965 219.806 120.885 220.056 120.843 220.387C120.8 220.717 120.779 221.143 120.779 221.664C120.779 222.197 120.8 222.628 120.843 222.958C120.885 223.288 120.971 223.544 121.098 223.725C121.226 223.895 121.412 224.013 121.657 224.076C121.913 224.13 122.243 224.156 122.648 224.156C122.903 224.156 123.191 224.146 123.51 224.124C123.841 224.103 124.16 224.076 124.469 224.045V225.626C124.171 225.7 123.803 225.759 123.367 225.802C122.93 225.844 122.504 225.866 122.089 225.866ZM129.946 225.866C129.222 225.866 128.621 225.818 128.141 225.722C127.662 225.626 127.279 225.477 126.991 225.274C126.714 225.062 126.501 224.795 126.352 224.476C126.214 224.146 126.123 223.752 126.081 223.294C126.049 222.825 126.033 222.287 126.033 221.68C126.033 220.956 126.07 220.328 126.145 219.795C126.219 219.263 126.374 218.826 126.608 218.486C126.853 218.134 127.226 217.879 127.726 217.719C128.237 217.549 128.913 217.463 129.755 217.463C130.436 217.463 130.99 217.517 131.416 217.623C131.842 217.73 132.177 217.889 132.422 218.102C132.678 218.315 132.859 218.592 132.965 218.933C133.083 219.263 133.157 219.657 133.189 220.115C133.221 220.573 133.237 221.095 133.237 221.68V222.303H128.141C128.141 222.708 128.157 223.038 128.189 223.294C128.232 223.539 128.322 223.725 128.461 223.853C128.61 223.981 128.839 224.066 129.148 224.108C129.467 224.151 129.899 224.172 130.442 224.172C130.665 224.172 130.916 224.167 131.192 224.156C131.48 224.146 131.773 224.13 132.071 224.108C132.38 224.087 132.662 224.066 132.918 224.045V225.61C132.683 225.663 132.396 225.706 132.055 225.738C131.725 225.78 131.373 225.812 131.001 225.834C130.639 225.855 130.287 225.866 129.946 225.866ZM131.224 221.249V220.994C131.224 220.578 131.198 220.248 131.144 220.003C131.102 219.748 131.022 219.556 130.905 219.428C130.798 219.3 130.649 219.22 130.458 219.188C130.266 219.146 130.021 219.125 129.723 219.125C129.371 219.125 129.095 219.151 128.892 219.204C128.69 219.247 128.535 219.338 128.429 219.476C128.322 219.604 128.248 219.795 128.205 220.051C128.163 220.296 128.141 220.61 128.141 220.994H131.512L131.224 221.249Z" fill="white"/>
<path opacity="0.8" d="M143.232 393.816V382.827H148.328C149.009 382.827 149.563 382.912 149.989 383.082C150.426 383.252 150.761 383.497 150.995 383.817C151.23 384.126 151.389 384.504 151.475 384.951C151.571 385.398 151.618 385.904 151.618 386.469C151.618 386.99 151.576 387.475 151.491 387.922C151.416 388.359 151.262 388.742 151.027 389.072C150.793 389.402 150.452 389.658 150.005 389.839C149.568 390.02 148.988 390.111 148.264 390.111H145.5V393.816H143.232ZM145.5 388.258H147.369C147.827 388.258 148.189 388.236 148.456 388.194C148.722 388.14 148.919 388.05 149.047 387.922C149.174 387.794 149.254 387.613 149.286 387.379C149.329 387.145 149.35 386.841 149.35 386.469C149.35 386.096 149.329 385.792 149.286 385.558C149.254 385.324 149.174 385.143 149.047 385.015C148.93 384.876 148.743 384.786 148.488 384.743C148.232 384.69 147.881 384.663 147.433 384.663H145.5V388.258ZM153.399 393.816V381.948H155.523V393.816H153.399ZM159.795 393.944C159.273 393.944 158.831 393.87 158.469 393.721C158.107 393.561 157.83 393.305 157.638 392.954C157.457 392.592 157.367 392.118 157.367 391.532C157.367 390.904 157.441 390.409 157.59 390.047C157.739 389.674 158 389.408 158.373 389.248C158.746 389.078 159.262 388.992 159.922 388.992C160.029 388.992 160.178 388.998 160.37 389.008C160.561 389.008 160.78 389.014 161.025 389.024C161.27 389.024 161.514 389.03 161.759 389.04C162.004 389.04 162.228 389.046 162.43 389.056V388.737C162.43 388.385 162.404 388.109 162.35 387.906C162.297 387.704 162.196 387.555 162.047 387.459C161.898 387.363 161.68 387.304 161.392 387.283C161.104 387.262 160.732 387.251 160.274 387.251C160.04 387.251 159.768 387.257 159.459 387.267C159.15 387.278 158.852 387.294 158.565 387.315C158.277 387.336 158.048 387.358 157.878 387.379V385.782C158.336 385.707 158.831 385.649 159.363 385.606C159.896 385.563 160.434 385.542 160.977 385.542C161.616 385.542 162.148 385.585 162.574 385.67C163.011 385.744 163.357 385.867 163.612 386.037C163.879 386.208 164.076 386.426 164.203 386.692C164.342 386.948 164.432 387.257 164.475 387.619C164.518 387.97 164.539 388.375 164.539 388.833V393.816H162.574L162.51 392.826H162.382C162.201 393.156 161.962 393.401 161.664 393.561C161.376 393.721 161.067 393.822 160.737 393.864C160.418 393.918 160.103 393.944 159.795 393.944ZM160.801 392.315C161.035 392.315 161.238 392.299 161.408 392.267C161.589 392.235 161.743 392.182 161.871 392.107C162.01 392.022 162.116 391.916 162.191 391.788C162.265 391.649 162.324 391.479 162.366 391.277C162.409 391.074 162.43 390.829 162.43 390.542V390.302H160.497C160.199 390.302 159.97 390.324 159.811 390.366C159.651 390.409 159.544 390.505 159.491 390.654C159.438 390.803 159.411 391.026 159.411 391.325C159.411 391.601 159.443 391.814 159.507 391.964C159.571 392.102 159.704 392.198 159.906 392.251C160.109 392.294 160.407 392.315 160.801 392.315ZM167.519 393.816V387.379H165.953V385.67H167.519V383.306H169.643V385.67H171.496V387.379H169.643V393.816H167.519ZM136.883 414.816V403.827H144.391V405.679H139.152V408.347H143.64V410.2H139.152V412.964H144.391V414.816H136.883ZM148.043 414.816L145.408 406.67H147.596L149.401 412.836H149.545L151.318 406.67H153.475L150.855 414.816H148.043ZM158.366 414.944C157.642 414.944 157.041 414.896 156.561 414.8C156.082 414.705 155.699 414.556 155.411 414.353C155.134 414.14 154.921 413.874 154.772 413.555C154.634 413.224 154.543 412.83 154.501 412.372C154.469 411.904 154.453 411.366 154.453 410.759C154.453 410.035 154.49 409.407 154.565 408.874C154.639 408.342 154.794 407.905 155.028 407.564C155.273 407.213 155.646 406.957 156.146 406.798C156.657 406.627 157.334 406.542 158.175 406.542C158.856 406.542 159.41 406.595 159.836 406.702C160.262 406.808 160.597 406.968 160.842 407.181C161.098 407.394 161.279 407.671 161.386 408.012C161.503 408.342 161.577 408.736 161.609 409.194C161.641 409.652 161.657 410.173 161.657 410.759V411.382H156.561C156.561 411.787 156.577 412.117 156.609 412.372C156.652 412.617 156.742 412.804 156.881 412.932C157.03 413.059 157.259 413.145 157.568 413.187C157.887 413.23 158.319 413.251 158.862 413.251C159.085 413.251 159.336 413.246 159.612 413.235C159.9 413.224 160.193 413.208 160.491 413.187C160.8 413.166 161.082 413.145 161.338 413.123V414.689C161.103 414.742 160.816 414.785 160.475 414.816C160.145 414.859 159.793 414.891 159.421 414.912C159.059 414.934 158.707 414.944 158.366 414.944ZM159.644 410.328V410.072C159.644 409.657 159.618 409.327 159.565 409.082C159.522 408.826 159.442 408.635 159.325 408.507C159.218 408.379 159.069 408.299 158.878 408.267C158.686 408.225 158.441 408.203 158.143 408.203C157.791 408.203 157.515 408.23 157.312 408.283C157.11 408.326 156.955 408.416 156.849 408.555C156.742 408.683 156.668 408.874 156.625 409.13C156.583 409.375 156.561 409.689 156.561 410.072H159.932L159.644 410.328ZM163.632 414.816V406.67H165.613L165.677 407.692H165.805C165.954 407.426 166.135 407.208 166.348 407.037C166.571 406.867 166.843 406.744 167.162 406.67C167.492 406.585 167.865 406.542 168.28 406.542C168.834 406.542 169.276 406.611 169.606 406.75C169.947 406.888 170.208 407.09 170.389 407.357C170.57 407.623 170.687 407.953 170.74 408.347C170.804 408.741 170.836 409.199 170.836 409.721V414.816H168.728V410.504C168.728 410.014 168.712 409.625 168.68 409.337C168.648 409.05 168.584 408.837 168.488 408.699C168.392 408.56 168.249 408.475 168.057 408.443C167.865 408.4 167.61 408.379 167.29 408.379C166.949 408.379 166.672 408.422 166.459 408.507C166.257 408.581 166.103 408.709 165.996 408.89C165.9 409.061 165.831 409.29 165.789 409.577C165.757 409.854 165.741 410.195 165.741 410.599V414.816H163.632ZM173.868 414.816V408.379H172.302V406.67H173.868V404.306H175.992V406.67H177.845V408.379H175.992V414.816H173.868Z" fill="white"/>
<path opacity="0.8" d="M350.198 391.202V380.212H355.294C355.975 380.212 356.529 380.298 356.955 380.468C357.392 380.638 357.727 380.883 357.961 381.203C358.196 381.512 358.355 381.89 358.441 382.337C358.536 382.784 358.584 383.29 358.584 383.854C358.584 384.376 358.542 384.861 358.457 385.308C358.382 385.745 358.228 386.128 357.993 386.458C357.759 386.788 357.418 387.044 356.971 387.225C356.534 387.406 355.954 387.496 355.23 387.496H352.466V391.202H350.198ZM352.466 385.644H354.335C354.793 385.644 355.155 385.622 355.421 385.58C355.688 385.526 355.885 385.436 356.013 385.308C356.14 385.18 356.22 384.999 356.252 384.765C356.295 384.531 356.316 384.227 356.316 383.854C356.316 383.482 356.295 383.178 356.252 382.944C356.22 382.71 356.14 382.529 356.013 382.401C355.895 382.262 355.709 382.172 355.453 382.129C355.198 382.076 354.846 382.049 354.399 382.049H352.466V385.644ZM360.365 391.202V379.334H362.489V391.202H360.365ZM366.761 391.33C366.239 391.33 365.797 391.256 365.435 391.107C365.073 390.947 364.796 390.691 364.604 390.34C364.423 389.978 364.332 389.504 364.332 388.918C364.332 388.29 364.407 387.795 364.556 387.433C364.705 387.06 364.966 386.794 365.339 386.634C365.712 386.464 366.228 386.378 366.888 386.378C366.995 386.378 367.144 386.384 367.336 386.394C367.527 386.394 367.746 386.4 367.99 386.41C368.235 386.41 368.48 386.416 368.725 386.426C368.97 386.426 369.194 386.432 369.396 386.442V386.123C369.396 385.771 369.37 385.494 369.316 385.292C369.263 385.09 369.162 384.941 369.013 384.845C368.864 384.749 368.645 384.69 368.358 384.669C368.07 384.648 367.698 384.637 367.24 384.637C367.005 384.637 366.734 384.642 366.425 384.653C366.116 384.664 365.818 384.68 365.531 384.701C365.243 384.722 365.014 384.744 364.844 384.765V383.168C365.302 383.093 365.797 383.034 366.329 382.992C366.862 382.949 367.399 382.928 367.943 382.928C368.582 382.928 369.114 382.971 369.54 383.056C369.977 383.13 370.323 383.253 370.578 383.423C370.844 383.594 371.041 383.812 371.169 384.078C371.308 384.334 371.398 384.642 371.441 385.005C371.483 385.356 371.505 385.761 371.505 386.219V391.202H369.54L369.476 390.212H369.348C369.167 390.542 368.928 390.787 368.629 390.947C368.342 391.107 368.033 391.208 367.703 391.25C367.383 391.304 367.069 391.33 366.761 391.33ZM367.767 389.701C368.001 389.701 368.203 389.685 368.374 389.653C368.555 389.621 368.709 389.568 368.837 389.493C368.976 389.408 369.082 389.302 369.157 389.174C369.231 389.035 369.29 388.865 369.332 388.663C369.375 388.46 369.396 388.215 369.396 387.928V387.688H367.463C367.165 387.688 366.936 387.709 366.776 387.752C366.617 387.795 366.51 387.89 366.457 388.04C366.404 388.189 366.377 388.412 366.377 388.71C366.377 388.987 366.409 389.2 366.473 389.349C366.537 389.488 366.67 389.584 366.872 389.637C367.075 389.68 367.373 389.701 367.767 389.701ZM374.485 391.202V384.765H372.919V383.056H374.485V380.692H376.609V383.056H378.462V384.765H376.609V391.202H374.485ZM382.929 391.33C382.599 391.33 382.242 391.32 381.859 391.298C381.486 391.277 381.119 391.25 380.757 391.218C380.395 391.186 380.064 391.149 379.766 391.107V389.509C379.926 389.52 380.112 389.536 380.325 389.557C380.549 389.568 380.789 389.578 381.044 389.589C381.3 389.6 381.55 389.61 381.795 389.621C382.04 389.632 382.269 389.637 382.482 389.637C382.972 389.637 383.323 389.616 383.536 389.573C383.76 389.52 383.903 389.435 383.967 389.317C384.031 389.19 384.063 389.025 384.063 388.822C384.063 388.609 384.042 388.455 383.999 388.359C383.957 388.253 383.877 388.183 383.76 388.151C383.643 388.119 383.451 388.088 383.185 388.056L381.284 387.816C380.783 387.752 380.405 387.619 380.15 387.417C379.905 387.214 379.734 386.943 379.638 386.602C379.553 386.261 379.511 385.857 379.511 385.388C379.511 384.834 379.591 384.398 379.75 384.078C379.921 383.748 380.15 383.503 380.437 383.343C380.735 383.173 381.087 383.061 381.491 383.008C381.907 382.955 382.354 382.928 382.833 382.928C383.153 382.928 383.483 382.939 383.824 382.96C384.164 382.981 384.489 383.013 384.798 383.056C385.117 383.088 385.384 383.13 385.597 383.184V384.765C385.352 384.733 385.08 384.712 384.782 384.701C384.484 384.68 384.191 384.664 383.903 384.653C383.616 384.632 383.36 384.621 383.137 384.621C382.732 384.621 382.407 384.637 382.162 384.669C381.928 384.69 381.763 384.754 381.667 384.861C381.571 384.967 381.523 385.143 381.523 385.388C381.523 385.58 381.539 385.729 381.571 385.835C381.603 385.931 381.672 386 381.779 386.043C381.885 386.075 382.056 386.107 382.29 386.139L384.351 386.394C384.723 386.437 385.038 386.522 385.293 386.65C385.549 386.778 385.735 387.001 385.852 387.321C385.98 387.64 386.044 388.125 386.044 388.774C386.044 389.339 385.975 389.791 385.836 390.132C385.698 390.462 385.485 390.718 385.197 390.899C384.92 391.069 384.59 391.181 384.207 391.234C383.834 391.298 383.408 391.33 382.929 391.33ZM350.866 412.33C350.461 412.33 350.014 412.32 349.524 412.298C349.045 412.277 348.576 412.245 348.118 412.202C347.66 412.17 347.24 412.133 346.856 412.091V410.286C347.25 410.317 347.65 410.349 348.054 410.381C348.47 410.413 348.864 410.44 349.237 410.461C349.609 410.472 349.929 410.477 350.195 410.477C350.738 410.477 351.159 410.456 351.457 410.413C351.755 410.36 351.979 410.286 352.128 410.19C352.245 410.105 352.325 410.014 352.367 409.918C352.41 409.812 352.437 409.689 352.447 409.551C352.458 409.402 352.463 409.237 352.463 409.056C352.463 408.811 352.447 408.608 352.415 408.449C352.394 408.289 352.351 408.166 352.288 408.081C352.224 407.985 352.117 407.916 351.968 407.873C351.83 407.831 351.649 407.799 351.425 407.778L348.965 407.474C348.475 407.41 348.07 407.298 347.751 407.139C347.442 406.979 347.197 406.766 347.016 406.5C346.835 406.234 346.707 405.919 346.633 405.557C346.569 405.195 346.537 404.785 346.537 404.327C346.537 403.603 346.638 403.028 346.84 402.602C347.043 402.176 347.325 401.851 347.687 401.628C348.06 401.404 348.496 401.26 348.997 401.196C349.497 401.122 350.041 401.085 350.626 401.085C351.052 401.085 351.489 401.101 351.936 401.133C352.383 401.154 352.804 401.186 353.198 401.228C353.592 401.271 353.922 401.324 354.188 401.388V403.145C353.922 403.103 353.613 403.065 353.262 403.033C352.91 403.001 352.543 402.98 352.16 402.97C351.776 402.948 351.414 402.938 351.074 402.938C350.573 402.938 350.174 402.959 349.875 403.001C349.588 403.033 349.364 403.092 349.205 403.177C349.024 403.284 348.912 403.422 348.869 403.593C348.837 403.763 348.821 403.976 348.821 404.231C348.821 404.551 348.843 404.796 348.885 404.966C348.928 405.126 349.029 405.238 349.189 405.302C349.348 405.366 349.599 405.419 349.939 405.461L352.399 405.749C352.698 405.781 352.974 405.834 353.23 405.909C353.486 405.983 353.715 406.1 353.917 406.26C354.119 406.42 354.284 406.644 354.412 406.931C354.487 407.08 354.545 407.256 354.588 407.458C354.63 407.65 354.662 407.868 354.684 408.113C354.716 408.358 354.732 408.63 354.732 408.928C354.732 409.545 354.668 410.062 354.54 410.477C354.423 410.893 354.252 411.223 354.029 411.468C353.805 411.713 353.528 411.899 353.198 412.027C352.879 412.154 352.522 412.234 352.128 412.266C351.734 412.309 351.313 412.33 350.866 412.33ZM360.18 412.33C359.478 412.33 358.892 412.288 358.423 412.202C357.955 412.117 357.587 411.979 357.321 411.787C357.055 411.595 356.858 411.34 356.73 411.02C356.613 410.701 356.533 410.302 356.49 409.822C356.459 409.343 356.443 408.773 356.443 408.113C356.443 407.453 356.459 406.888 356.49 406.42C356.533 405.941 356.613 405.541 356.73 405.222C356.858 404.902 357.055 404.647 357.321 404.455C357.587 404.263 357.955 404.13 358.423 404.056C358.892 403.971 359.478 403.928 360.18 403.928C360.883 403.928 361.464 403.971 361.922 404.056C362.39 404.13 362.758 404.263 363.024 404.455C363.301 404.647 363.498 404.902 363.615 405.222C363.743 405.541 363.822 405.941 363.854 406.42C363.897 406.888 363.918 407.453 363.918 408.113C363.918 408.773 363.897 409.343 363.854 409.822C363.822 410.302 363.743 410.701 363.615 411.02C363.498 411.34 363.301 411.595 363.024 411.787C362.758 411.979 362.39 412.117 361.922 412.202C361.464 412.288 360.883 412.33 360.18 412.33ZM360.18 410.621C360.574 410.621 360.883 410.594 361.107 410.541C361.341 410.488 361.501 410.381 361.586 410.222C361.682 410.051 361.741 409.796 361.762 409.455C361.783 409.114 361.794 408.667 361.794 408.113C361.794 407.559 361.783 407.117 361.762 406.787C361.741 406.447 361.682 406.196 361.586 406.037C361.501 405.866 361.341 405.76 361.107 405.717C360.883 405.664 360.574 405.637 360.18 405.637C359.776 405.637 359.462 405.664 359.238 405.717C359.014 405.76 358.855 405.866 358.759 406.037C358.663 406.196 358.604 406.447 358.583 406.787C358.572 407.117 358.567 407.559 358.567 408.113C358.567 408.667 358.572 409.114 358.583 409.455C358.604 409.796 358.663 410.051 358.759 410.222C358.855 410.381 359.014 410.488 359.238 410.541C359.462 410.594 359.776 410.621 360.18 410.621ZM369.049 412.33C368.4 412.33 367.862 412.272 367.436 412.154C367.021 412.037 366.685 411.867 366.43 411.643C366.185 411.42 366.004 411.143 365.887 410.813C365.769 410.472 365.695 410.078 365.663 409.631C365.631 409.173 365.615 408.667 365.615 408.113C365.615 407.581 365.631 407.096 365.663 406.659C365.706 406.212 365.791 405.818 365.919 405.477C366.046 405.137 366.233 404.854 366.478 404.631C366.723 404.397 367.053 404.221 367.468 404.104C367.883 403.987 368.405 403.928 369.033 403.928C369.438 403.928 369.853 403.949 370.279 403.992C370.705 404.034 371.067 404.093 371.366 404.168V405.765C371.142 405.722 370.86 405.69 370.519 405.669C370.178 405.648 369.864 405.637 369.577 405.637C369.161 405.637 368.831 405.669 368.586 405.733C368.352 405.797 368.171 405.919 368.043 406.1C367.926 406.271 367.846 406.521 367.803 406.851C367.761 407.181 367.74 407.607 367.74 408.129C367.74 408.662 367.761 409.093 367.803 409.423C367.846 409.753 367.931 410.009 368.059 410.19C368.187 410.36 368.373 410.477 368.618 410.541C368.874 410.594 369.204 410.621 369.608 410.621C369.864 410.621 370.152 410.61 370.471 410.589C370.801 410.568 371.121 410.541 371.429 410.509V412.091C371.131 412.165 370.764 412.224 370.327 412.266C369.891 412.309 369.465 412.33 369.049 412.33ZM373.249 402.219V400.334H375.438V402.219H373.249ZM373.281 412.202V404.056H375.406V412.202H373.281ZM379.677 412.33C379.155 412.33 378.713 412.256 378.351 412.107C377.989 411.947 377.712 411.691 377.52 411.34C377.339 410.978 377.249 410.504 377.249 409.918C377.249 409.29 377.323 408.795 377.472 408.433C377.622 408.06 377.882 407.794 378.255 407.634C378.628 407.464 379.144 407.378 379.805 407.378C379.911 407.378 380.06 407.384 380.252 407.394C380.444 407.394 380.662 407.4 380.907 407.41C381.152 407.41 381.397 407.416 381.642 407.426C381.887 407.426 382.11 407.432 382.312 407.442V407.123C382.312 406.771 382.286 406.494 382.233 406.292C382.179 406.09 382.078 405.941 381.929 405.845C381.78 405.749 381.562 405.69 381.274 405.669C380.987 405.648 380.614 405.637 380.156 405.637C379.922 405.637 379.65 405.642 379.341 405.653C379.033 405.664 378.734 405.68 378.447 405.701C378.159 405.722 377.93 405.744 377.76 405.765V404.168C378.218 404.093 378.713 404.034 379.246 403.992C379.778 403.949 380.316 403.928 380.859 403.928C381.498 403.928 382.03 403.971 382.456 404.056C382.893 404.13 383.239 404.253 383.495 404.423C383.761 404.594 383.958 404.812 384.086 405.078C384.224 405.334 384.315 405.642 384.357 406.005C384.4 406.356 384.421 406.761 384.421 407.219V412.202H382.456L382.392 411.212H382.265C382.084 411.542 381.844 411.787 381.546 411.947C381.258 412.107 380.949 412.208 380.619 412.25C380.3 412.304 379.986 412.33 379.677 412.33ZM380.683 410.701C380.917 410.701 381.12 410.685 381.29 410.653C381.471 410.621 381.626 410.568 381.753 410.493C381.892 410.408 381.998 410.302 382.073 410.174C382.147 410.035 382.206 409.865 382.249 409.663C382.291 409.46 382.312 409.215 382.312 408.928V408.688H380.38C380.081 408.688 379.853 408.709 379.693 408.752C379.533 408.795 379.427 408.89 379.373 409.04C379.32 409.189 379.293 409.412 379.293 409.71C379.293 409.987 379.325 410.2 379.389 410.349C379.453 410.488 379.586 410.584 379.789 410.637C379.991 410.68 380.289 410.701 380.683 410.701ZM386.712 412.202V400.334H388.837V412.202H386.712Z" fill="white"/>
<defs>
<filter id="filter0_d_330_2920" x="172.118" y="0.962852" width="182.379" height="195.017" filterUnits="userSpaceOnUse" color-interpolation-filters="sRGB">
<feFlood flood-opacity="0" result="BackgroundImageFix"/>
<feColorMatrix in="SourceAlpha" type="matrix" values="0 0 0 0 0 0 0 0 0 0 0 0 0 0 0 0 0 0 127 0" result="hardAlpha"/>
<feOffset dy="10.4559"/>
<feGaussianBlur stdDeviation="20.0404"/>
<feComposite in2="hardAlpha" operator="out"/>
<feColorMatrix type="matrix" values="0 0 0 0 0 0 0 0 0 0 0 0 0 0 0 0 0 0 0.25 0"/>
<feBlend mode="normal" in2="BackgroundImageFix" result="effect1_dropShadow_330_2920"/>
<feBlend mode="normal" in="SourceGraphic" in2="effect1_dropShadow_330_2920" result="shape"/>
</filter>
<filter id="filter1_d_330_2920" x="66.3182" y="311.653" width="182.379" height="195.017" filterUnits="userSpaceOnUse" color-interpolation-filters="sRGB">
<feFlood flood-opacity="0" result="BackgroundImageFix"/>
<feColorMatrix in="SourceAlpha" type="matrix" values="0 0 0 0 0 0 0 0 0 0 0 0 0 0 0 0 0 0 127 0" result="hardAlpha"/>
<feOffset dy="10.4559"/>
<feGaussianBlur stdDeviation="20.0404"/>
<feComposite in2="hardAlpha" operator="out"/>
<feColorMatrix type="matrix" values="0 0 0 0 0 0 0 0 0 0 0 0 0 0 0 0 0 0 0.25 0"/>
<feBlend mode="normal" in2="BackgroundImageFix" result="effect1_dropShadow_330_2920"/>
<feBlend mode="normal" in="SourceGraphic" in2="effect1_dropShadow_330_2920" result="shape"/>
</filter>
<filter id="filter2_d_330_2920" x="278.769" y="311.653" width="182.379" height="195.017" filterUnits="userSpaceOnUse" color-interpolation-filters="sRGB">
<feFlood flood-opacity="0" result="BackgroundImageFix"/>
<feColorMatrix in="SourceAlpha" type="matrix" values="0 0 0 0 0 0 0 0 0 0 0 0 0 0 0 0 0 0 127 0" result="hardAlpha"/>
<feOffset dy="10.4559"/>
<feGaussianBlur stdDeviation="20.0404"/>
<feComposite in2="hardAlpha" operator="out"/>
<feColorMatrix type="matrix" values="0 0 0 0 0 0 0 0 0 0 0 0 0 0 0 0 0 0 0.25 0"/>
<feBlend mode="normal" in2="BackgroundImageFix" result="effect1_dropShadow_330_2920"/>
<feBlend mode="normal" in="SourceGraphic" in2="effect1_dropShadow_330_2920" result="shape"/>
</filter>
<filter id="filter3_d_330_2920" x="341.866" y="124.76" width="182.379" height="195.017" filterUnits="userSpaceOnUse" color-interpolation-filters="sRGB">
<feFlood flood-opacity="0" result="BackgroundImageFix"/>
<feColorMatrix in="SourceAlpha" type="matrix" values="0 0 0 0 0 0 0 0 0 0 0 0 0 0 0 0 0 0 127 0" result="hardAlpha"/>
<feOffset dy="10.4559"/>
<feGaussianBlur stdDeviation="20.0404"/>
<feComposite in2="hardAlpha" operator="out"/>
<feColorMatrix type="matrix" values="0 0 0 0 0 0 0 0 0 0 0 0 0 0 0 0 0 0 0.25 0"/>
<feBlend mode="normal" in2="BackgroundImageFix" result="effect1_dropShadow_330_2920"/>
<feBlend mode="normal" in="SourceGraphic" in2="effect1_dropShadow_330_2920" result="shape"/>
</filter>
<filter id="filter4_d_330_2920" x="0.825787" y="124.76" width="182.379" height="195.017" filterUnits="userSpaceOnUse" color-interpolation-filters="sRGB">
<feFlood flood-opacity="0" result="BackgroundImageFix"/>
<feColorMatrix in="SourceAlpha" type="matrix" values="0 0 0 0 0 0 0 0 0 0 0 0 0 0 0 0 0 0 127 0" result="hardAlpha"/>
<feOffset dy="10.4559"/>
<feGaussianBlur stdDeviation="20.0404"/>
<feComposite in2="hardAlpha" operator="out"/>
<feColorMatrix type="matrix" values="0 0 0 0 0 0 0 0 0 0 0 0 0 0 0 0 0 0 0.25 0"/>
<feBlend mode="normal" in2="BackgroundImageFix" result="effect1_dropShadow_330_2920"/>
<feBlend mode="normal" in="SourceGraphic" in2="effect1_dropShadow_330_2920" result="shape"/>
</filter>
</defs>
</svg>
